<?xml version="1.0" standalone="no"?>
<!DOCTYPE svg PUBLIC "-//W3C//DTD SVG 20010904//EN"
 "http://www.w3.org/TR/2001/REC-SVG-20010904/DTD/svg10.dtd">
<svg version="1.0" xmlns="http://www.w3.org/2000/svg"
 width="906.000000pt" height="906.000000pt" viewBox="0 0 906.000000 906.000000"
 preserveAspectRatio="xMidYMid meet">
<metadata>
Created by potrace 1.14, written by Peter Selinger 2001-2017
</metadata>
<g transform="translate(0.000000,906.000000) scale(0.100000,-0.100000)"
fill="#000000" stroke="none">
<path d="M4950 8821 c-170 -55 -353 -189 -561 -411 -94 -100 -214 -242 -272
-321 -133 -182 -233 -337 -310 -481 -45 -84 -105 -223 -112 -261 -2 -9 -11
-45 -20 -80 -25 -93 -33 -127 -39 -177 -5 -42 -19 -266 -20 -317 0 -32 -4 -29
-23 20 -9 23 -43 93 -75 156 -173 338 -434 648 -834 991 -16 14 -47 39 -69 55
-22 17 -42 32 -45 36 -26 29 -331 245 -491 346 -151 97 -171 103 -342 103 -53
1 -101 -1 -106 -4 -4 -3 -23 -8 -41 -11 -94 -17 -228 -119 -281 -215 -44 -80
-87 -205 -103 -300 -28 -168 -29 -579 -1 -810 2 -19 7 -62 10 -95 3 -33 8 -79
10 -102 3 -24 7 -64 10 -90 3 -27 7 -66 10 -88 9 -81 14 -132 20 -210 9 -129
15 -165 41 -269 80 -326 249 -660 480 -946 182 -226 457 -469 704 -622 133
-83 247 -215 329 -383 95 -195 131 -357 126 -560 -3 -149 -26 -249 -80 -357
-58 -114 -200 -632 -230 -844 -3 -22 -10 -64 -16 -94 -13 -76 -23 -226 -23
-350 0 -106 10 -266 18 -279 2 -3 7 -25 11 -48 5 -38 34 -139 67 -238 13 -41
42 -73 163 -184 39 -36 111 -103 160 -150 230 -218 294 -275 421 -379 268
-216 514 -341 764 -388 95 -18 251 -22 385 -10 181 16 323 22 695 31 435 10
754 28 910 50 14 2 50 7 80 10 55 7 197 30 236 39 12 2 37 7 56 10 57 9 269
72 352 106 290 115 488 277 613 500 31 56 86 201 97 255 4 17 9 41 11 55 29
143 26 291 -7 400 -48 156 -115 339 -162 442 -14 31 -26 59 -26 62 0 7 -155
319 -197 396 -17 30 -54 100 -83 155 -29 55 -56 105 -60 110 -4 6 -21 36 -39
68 -58 106 -94 172 -123 226 -59 106 -207 408 -248 506 -60 143 -85 190 -148
280 -254 365 -745 618 -1467 755 -75 15 -125 29 -133 39 -12 15 -35 84 -48
142 -3 13 -6 65 -8 114 -3 83 1 133 19 255 9 61 69 289 148 560 56 196 83 303
101 413 3 15 7 69 11 120 3 50 8 101 10 112 4 19 13 109 21 212 2 27 6 217 8
423 5 359 12 566 21 620 2 14 6 45 9 70 11 106 19 152 47 269 17 67 44 159 60
203 26 72 28 85 18 117 -34 105 -102 197 -173 233 -56 29 -163 32 -236 9z
m245 -200 c33 -101 21 -218 -41 -396 -150 -429 -145 -412 -145 -520 0 -33 7
-80 16 -105 9 -25 19 -56 21 -70 3 -14 7 -32 10 -40 3 -8 7 -31 10 -50 2 -19
8 -64 13 -100 10 -67 8 -433 -2 -460 -3 -8 -8 -37 -11 -65 -15 -156 -69 -410
-170 -810 -64 -251 -120 -489 -131 -555 -3 -19 -12 -71 -20 -115 -8 -44 -17
-105 -20 -135 -3 -30 -8 -77 -11 -104 -3 -27 0 -68 6 -92 17 -59 8 -86 -37
-111 -53 -30 -117 -38 -333 -44 -106 -3 -150 24 -238 141 -122 165 -247 563
-296 950 -3 25 -8 54 -10 65 -4 23 -12 86 -21 170 -4 33 -8 71 -10 85 -2 14
-7 66 -11 115 -3 50 -8 98 -10 108 -5 29 -18 268 -17 342 0 320 155 736 406
1093 216 308 520 570 797 687 71 31 221 75 232 69 3 -2 14 -26 23 -53z m-3311
-311 c229 -58 478 -231 801 -555 191 -191 213 -215 341 -365 208 -246 293
-365 358 -502 134 -281 251 -619 331 -958 41 -169 93 -466 115 -645 6 -49 12
-103 14 -120 3 -16 7 -66 11 -110 3 -44 8 -93 10 -110 5 -37 18 -338 17 -385
0 -19 -4 -62 -9 -95 -5 -33 -6 -71 -3 -85 8 -34 44 -38 64 -7 15 21 64 151 71
187 2 8 8 35 13 60 15 66 25 132 24 158 -2 19 1 21 16 13 9 -6 30 -24 47 -41
42 -44 119 -93 202 -128 67 -28 257 -82 291 -82 23 0 52 30 52 55 0 28 -22 48
-85 76 -38 17 -45 23 -30 26 11 2 81 22 155 43 180 51 179 50 269 51 51 0 89
-5 107 -14 16 -8 70 -22 119 -32 120 -22 162 -35 181 -56 15 -16 14 -20 -2
-48 -10 -17 -16 -33 -13 -36 18 -17 174 -60 347 -95 201 -40 276 -61 347 -97
22 -11 72 -36 110 -55 95 -48 162 -103 224 -185 50 -66 128 -213 171 -323 67
-172 132 -309 196 -417 71 -118 183 -334 260 -498 102 -220 219 -453 287 -572
l76 -132 -4 -67 c-6 -95 -13 -121 -50 -189 -31 -56 -38 -62 -88 -78 -109 -34
-174 -16 -328 94 -54 38 -121 81 -149 95 -57 29 -66 48 -57 128 6 62 55 165
98 207 33 33 53 38 45 11 -9 -27 6 -41 50 -46 32 -4 46 -1 62 15 12 11 22 22
22 25 0 3 -14 34 -31 70 -41 85 -84 119 -140 111 -75 -10 -136 -95 -239 -331
-51 -118 -59 -145 -54 -178 15 -92 111 -183 279 -263 103 -49 359 -143 407
-149 51 -7 68 -16 74 -42 11 -42 2 -83 -52 -242 -38 -111 -40 -115 -119 -195
-307 -313 -705 -439 -1060 -335 -327 95 -515 385 -470 723 21 149 106 353 220
520 35 52 60 95 56 95 -5 0 -28 -7 -52 -15 -182 -63 -303 -213 -349 -432 -18
-84 -21 -269 -7 -343 3 -14 8 -40 11 -59 30 -153 132 -338 248 -448 151 -142
335 -211 567 -212 177 -2 -9 -17 -304 -26 -82 -3 -161 -7 -175 -10 -21 -5 -98
-5 -335 -3 -48 1 -261 -10 -325 -17 -25 -2 -76 -7 -115 -10 -38 -3 -86 -10
-105 -15 -111 -29 -326 -41 -445 -25 -467 61 -929 327 -1230 707 -61 77 -109
118 -181 157 -82 43 -187 164 -240 276 -57 120 -76 210 -77 375 -2 168 4 214
43 359 50 186 57 207 95 292 65 147 86 216 91 302 7 105 31 190 117 407 179
454 221 604 202 726 -6 41 -53 114 -74 114 -4 0 -12 -35 -18 -79 -12 -78 -45
-187 -62 -204 -52 -52 -163 199 -163 369 0 25 4 50 9 55 6 6 37 -2 79 -21 l69
-31 -65 64 c-105 101 -235 208 -529 436 -536 414 -801 699 -960 1032 -47 100
-102 268 -114 354 -4 22 -11 65 -17 95 -6 30 -13 69 -15 85 -3 17 -8 41 -10
55 -10 49 -13 66 -25 145 -7 44 -14 87 -15 96 -2 9 -6 40 -10 70 -3 30 -10 83
-15 119 -19 144 -25 256 -25 490 0 254 5 330 31 440 9 36 17 72 19 80 7 32 49
135 68 169 56 96 119 151 210 182 68 24 146 24 241 -1z m5631 -6502 c32 -121
21 -352 -20 -430 -10 -18 -27 -50 -38 -71 -32 -61 -102 -106 -132 -84 -15 12
-14 18 13 72 23 48 47 120 57 175 3 16 15 102 20 140 17 140 29 199 47 234 24
46 34 40 53 -36z m-492 -893 c-74 -50 -196 -109 -288 -139 -93 -30 -249 -66
-285 -65 -14 0 16 9 65 19 125 27 268 79 415 154 145 73 165 79 93 31z m-610
-212 c-7 -2 -19 -2 -25 0 -7 3 -2 5 12 5 14 0 19 -2 13 -5z"/>
<path d="M4539 3836 c-2 -2 -38 -6 -79 -9 -218 -18 -366 -103 -386 -222 -10
-64 -8 -205 6 -270 26 -133 120 -277 221 -341 85 -54 238 -78 334 -54 22 6 48
12 57 15 9 2 39 13 65 25 26 12 77 31 113 42 86 27 136 53 154 81 21 32 27
340 9 421 -34 149 -137 248 -299 290 -57 14 -187 29 -195 22z m176 -150 c97
-44 165 -130 190 -241 51 -225 -106 -390 -364 -381 -89 3 -175 37 -226 89
-120 124 -138 319 -39 436 97 116 298 160 439 97z"/>
</g>
</svg>
